<svg width="100" height="50" xmlns="http://www.w3.org/2000/svg" stroke="null">
 <g stroke="null">
  <title stroke="null">Layer 1</title>
  <ellipse stroke="black" cx="50" cy="25" id="svg_6" rx="17.24433" ry="17.40253" fill="#FFFFFF"/>
  <line id="svg_1" y2="24.71875" x2="81.53923" y1="24.71875" x1="16.64568" stroke="black"/>
  <path id="svg_2" d="m37.98446,20.50329l24.03107,0l0,8.99342l-24.03107,0l0,-8.99342z" opacity="undefined" fill="#FFFFFF" stroke="#000000"/>
  <path fill="#000000" d="m22.99482,15.21832c-0.51575,-0.12849 -0.44805,-0.20631 0.80569,-0.92662c0.63301,-0.36372 1.15102,-0.67187 1.15102,-0.68479c0,-0.01291 -1.74809,-0.02348 -3.8848,-0.02348l-3.88468,0l0,-0.68121l0,-0.68121l3.91555,0c3.01909,0 3.8818,-0.02053 3.76836,-0.08964c-0.081,-0.0493 -0.63338,-0.37643 -1.2273,-0.72696c-1.11971,-0.66076 -1.11933,-0.83796 0.00177,-0.89288c0.55791,-0.02734 9.24421,2.07283 9.54283,2.30724c-2.89333,0.837 -6.35188,1.71312 -9.53783,2.48561c-0.16791,0 -0.46078,-0.03872 -0.6506,-0.08605l-0.00001,-0.00001z" id="svg_9" stroke-width="0" transform="rotate(31 25.1826 12.9078)" stroke="#FFFFFF"/>
  <path fill="#000000" d="m26.55035,9.16075c-0.51576,-0.12849 -0.44805,-0.20631 0.80569,-0.92662c0.63301,-0.36372 1.15102,-0.67187 1.15102,-0.68479c0,-0.01291 -1.74809,-0.02348 -3.8848,-0.02348l-3.88469,0l0,-0.68121l0,-0.68121l3.91555,0c3.01909,0 3.8818,-0.02053 3.76837,-0.08964c-0.081,-0.0493 -0.63339,-0.37643 -1.2273,-0.72696c-1.11972,-0.66076 -1.11934,-0.83796 0.00177,-0.89288c0.5579,-0.02734 9.24421,2.07283 9.54282,2.30724c-2.89333,0.837 -6.35188,1.71312 -9.53783,2.48561c-0.1679,0 -0.46077,-0.03872 -0.65059,-0.08605l-0.00001,-0.00001z" id="svg_3" stroke-width="0" transform="rotate(31 28.7382 6.85025)" stroke="#FFFFFF"/>
 </g>

</svg>